<?xml version="1.0" encoding="utf-8"?><svg viewBox="0 0 122 34" xmlns="http://www.w3.org/2000/svg" xmlns:xlink="http://www.w3.org/1999/xlink"><style>:root>svg{display:none}:root>svg:target{display:block}</style><svg fill="none" viewBox="0 0 12 12" id="arrow_footer" xmlns="http://www.w3.org/2000/svg"><path d="M11.5 1a.5.5 0 00-.5-.5H6.5a.5.5 0 000 1h4v4a.5.5 0 001 0V1zM1.354 11.354l10-10-.708-.708-10 10 .708.708z" fill="#000"/></svg><svg fill="none" viewBox="0 0 18 22" id="bag" xmlns="http://www.w3.org/2000/svg"><path fill-rule="evenodd" clip-rule="evenodd" d="M5.155 5.583a3.918 3.918 0 017.69 0h-7.69zm-1.52 0a5.418 5.418 0 0110.73 0h2.802a.75.75 0 01.75.75v14a.75.75 0 01-.75.75H.833a.75.75 0 01-.75-.75v-14a.75.75 0 01.75-.75h2.802zm10.032 1.5H1.583v12.5h14.834v-12.5h-2.75z" fill="#fff"/></svg><svg fill="none" viewBox="0 0 18 22" id="bag-black" xmlns="http://www.w3.org/2000/svg"><path fill-rule="evenodd" clip-rule="evenodd" d="M5.155 5.583a3.918 3.918 0 017.69 0h-7.69zm-1.52 0a5.418 5.418 0 0110.73 0h2.802a.75.75 0 01.75.75v14a.75.75 0 01-.75.75H.833a.75.75 0 01-.75-.75v-14a.75.75 0 01.75-.75h2.802zm10.032 1.5H1.583v12.5h14.834v-12.5h-2.75z" fill="#000"/></svg><svg fill="none" viewBox="0 0 18 22" id="bag-w" xmlns="http://www.w3.org/2000/svg"><path fill-rule="evenodd" clip-rule="evenodd" d="M.083 6.333a.75.75 0 01.75-.75h16.334a.75.75 0 01.75.75v14a.75.75 0 01-.75.75H.833a.75.75 0 01-.75-.75v-14zm1.5.75v12.5h14.834v-12.5H1.583z" fill="#fff"/><path fill-rule="evenodd" clip-rule="evenodd" d="M9 2.417a3.917 3.917 0 00-3.917 3.916.75.75 0 11-1.5 0 5.417 5.417 0 0110.834 0 .75.75 0 01-1.5 0A3.917 3.917 0 009 2.417z" fill="#fff"/></svg><svg fill="none" viewBox="0 0 57 30" id="logo_pult" xmlns="http://www.w3.org/2000/svg"><path d="M28.724 26.184l11.496 3.797V0L28.724 3.796v22.389z" fill="#4CC7E9"/><path d="M0 11.405h1.971v1.125c.237-.396.57-.723.967-.95a2.618 2.618 0 011.303-.343c1.74 0 3.08 1.31 3.08 3.678v.118c0 2.368-1.324 3.712-3.08 3.712a2.5 2.5 0 01-1.303-.306 2.544 2.544 0 01-.967-.937v3.544H0v-9.641zm5.317 3.644v-.117c0-1.462-.71-2.167-1.69-2.167-1.026 0-1.74.72-1.74 2.166v.118c0 1.445.68 2.15 1.74 2.15 1.094-.017 1.69-.756 1.69-2.15zM8.382 16.04v-4.635h1.954v4.35c0 .974.398 1.444 1.226 1.444.829 0 1.475-.52 1.475-1.579v-4.215h1.954v7.188h-1.938v-1.125a2.37 2.37 0 01-.938.98c-.4.226-.858.33-1.315.296-1.392 0-2.418-.823-2.418-2.704zM16.498 8.146h1.955v10.43H16.5V8.146zM20.21 16.46v-3.645h-.912v-1.41h.911V9.859h1.955v1.546h1.49v1.41h-1.49v3.46c0 .571.281.857.778.857.256.01.51-.036.746-.135v1.547a3.408 3.408 0 01-1.193.185c-1.474-.002-2.286-.774-2.286-2.27zM45.338 11.404h1.971v1.378c.182-.457.5-.845.91-1.11.41-.265.891-.394 1.376-.368v1.847c-1.457-.017-2.286.47-2.286 1.847v3.595h-1.97v-7.189zM50.39 16.04v-4.635h1.955v4.35c0 .974.398 1.444 1.226 1.444s1.474-.52 1.474-1.579v-4.215H57v7.188h-1.955v-1.125a2.37 2.37 0 01-.939.98c-.4.226-.857.33-1.314.296-1.375 0-2.402-.823-2.402-2.704z" fill="#343741"/></svg><svg fill="none" viewBox="0 0 65 34" id="logo_pult--w" xmlns="http://www.w3.org/2000/svg"><path d="M32.755 29.676l13.11 4.302V0l-13.11 4.302v25.374z" fill="#4CC7E9"/><path d="M0 12.925h2.248V14.2c.27-.448.65-.818 1.103-1.075a3 3 0 011.485-.39c1.984 0 3.514 1.485 3.514 4.169v.133c0 2.684-1.511 4.207-3.514 4.207a2.865 2.865 0 01-1.486-.347 2.892 2.892 0 01-1.102-1.062v4.017H0V12.925zm6.063 4.13v-.133c0-1.656-.81-2.455-1.926-2.455-1.17 0-1.984.816-1.984 2.455v.134c0 1.637.775 2.436 1.984 2.436 1.247-.02 1.926-.857 1.926-2.436zM9.558 18.179v-5.254h2.229v4.93c0 1.104.453 1.637 1.398 1.637.945 0 1.681-.59 1.681-1.789v-4.778h2.23v8.147h-2.21v-1.275a2.693 2.693 0 01-1.071 1.11 2.666 2.666 0 01-1.5.337c-1.587 0-2.757-.933-2.757-3.065zM18.814 9.232h2.23v11.821h-2.23V9.233zM23.046 18.655v-4.131h-1.04v-1.599h1.04v-1.751h2.229v1.751h1.7v1.599h-1.7v3.921c0 .647.32.97.887.97.291.013.581-.04.85-.152v1.753c-.437.15-.898.221-1.36.21-1.68-.002-2.606-.877-2.606-2.571zM51.701 12.925h2.248v1.56c.208-.517.57-.957 1.038-1.257a2.647 2.647 0 011.57-.417v2.093c-1.663-.019-2.608.533-2.608 2.094v4.074h-2.248v-8.147zM57.463 18.179v-5.254h2.229v4.93c0 1.104.453 1.637 1.397 1.637.945 0 1.681-.59 1.681-1.79v-4.777H65v8.147h-2.23v-1.275a2.693 2.693 0 01-1.07 1.11 2.664 2.664 0 01-1.499.337c-1.568 0-2.738-.933-2.738-3.065z" fill="#fff"/></svg><svg fill="none" viewBox="0 0 122 20" id="roland_logo" xmlns="http://www.w3.org/2000/svg"><path d="M70.465 1.492v16.483c.001 0 .004.718.718.718h1.965c.716-.004.714-.718.714-.718V1.492c.002 0 0-.718-.714-.718h-1.965c-.717 0-.717.718-.718.718zM104.433 17.975l.001-7.266c0-3.252-2.86-5.246-4.948-5.246-2.077 0-3.842.54-5.2 1.64-.122.1-.461.204-.461-.092l-.006-.75s0-.715-.716-.715H91.41s-.715 0-.715.715l-.003 11.714c.003.718.718.718.718.718l1.697-.001c.712-.003.712-.717.707-.717l.003-5.725c.002-1.582 1.069-4.284 4.58-4.284 2.508 0 2.909 1.726 2.909 2.743l.002 7.266c0 .718.717.714.717.714l1.696.004s.716 0 .712-.718zM75.738 9.172a.375.375 0 00-.006.074l.006-.074zM113.371 8.03c2.445 0 4.418 1.68 4.425 4.29.005 2.69-1.975 4.416-4.42 4.416-2.448 0-4.312-1.92-4.312-4.45-.003-2.505 2.026-4.255 4.307-4.255zm4.086 9.543c.208-.163.423-.029.419.348 0 .054 0 .772.717.772h1.695s.712 0 .712-.718V1.492c0-.718-.712-.714-.712-.714h-1.695s-.717-.004-.722.714l.002 5.206c-.005.376-.204.505-.412.347-4.613-3.535-11.625 0-11.612 5.234.011 5.855 6.927 9.008 11.608 5.294z" fill="#fff"/><path d="M79.165 13.582c1.616-.856 5.607-.772 5.976-.723.186.025.455.16.452.421-.012 3.45-4.725 3.916-6.53 2.728a1.44 1.44 0 01-.63-1.09c-.013-.587.188-1.051.732-1.336zm-2.1 4.64c2.214 1.578 6.331 1.195 8.207-.445.227-.199.49-.035.564.198.185.576.445.714 1.02.718h1.172c.71 0 .715-.718.71-.718l.004-7.415c0-4.03-3.76-5.101-6.643-5.101-3.223.004-5.33 1.228-6.358 3.718-.105.253.197.557.454.557l2.2.007c.376 0 .753-.319.865-.505.572-.957 1.497-1.314 3.232-1.314 1.919 0 2.424.426 3.044 1.314.4.57-.14 1.164-.447 1.18-4.622.237-5.406.405-6.665.609-1.823.287-3.217 2.051-3.204 3.892 0 1.204.564 2.399 1.846 3.306zm-15.819.933c5.712 0 8.104-3.704 8.1-6.845-.004-3.005-2.404-6.847-8.149-6.847-5.735-.004-8.133 3.83-8.133 6.852 0 3.196 2.422 6.84 8.182 6.84zm0-2.453c-3.339 0-4.868-2.474-4.868-4.372 0-1.894 1.6-4.397 4.82-4.397s4.832 2.487 4.832 4.382c0 1.917-1.576 4.387-4.784 4.387zm-21.906-5.36c-.002 1.666.003 5.453.003 6.628 0 .717-.717.714-.717.714h-1.602s-.718.01-.724-.714l.004-16.482c0-.714.714-.714.714-.714H47.41c2.352 0 5.032 1.62 5.032 4.929 0 1.608-.92 3.093-2.216 3.998-.104.07-.184.21-.134.249.887.698.897 1.269 1.21 2.468.562 2.17.629 4.06 1.484 5.879.06.125-.088.387-.282.387l-2.07.005c-.68 0-1.052-.323-1.181-.72-.744-2.27-.231-4.471-1.779-6.626-.363-.506-1.166-.715-2.104-.715h-5.314c-.002 0-.714 0-.717.715zM46.4 8.252c0 .003 2.788.008 2.788-2.548 0-2.555-2.788-2.56-2.788-2.56h-6.342c-.714 0-.714.719-.714.719s-.005 2.795 0 3.673c0 .719.754.719.714.719l6.342-.003zM29.333 8.638H11.789c-2.601 0-4.43 2-4.43 4.348 0 2.343 1.938 4.396 4.43 4.396h21.454v1.302H11.768c-3.457 0-5.781-2.645-5.781-5.687 0-3.043 2.335-5.675 5.771-5.675h16.224V5.546H5.987v13.138H4.542V4.23h24.79v4.407z" fill="#fff"/><path d="M10.44 15.238h22.803v-1.313H11.79v-1.777h16.229c3.436 0 5.771-2.63 5.771-5.674 0-3.043-2.395-5.7-5.853-5.7H1v17.91h1.446V2.09h25.536c2.498 0 4.447 2.052 4.447 4.397s-1.844 4.344-4.447 4.344H10.44v4.406z" fill="#fff"/></svg></svg>