<svg width="65" height="34" fill="none" xmlns="http://www.w3.org/2000/svg"><path d="M32.755 29.676l13.11 4.302V0l-13.11 4.302v25.374z" fill="#4CC7E9"/><path d="M0 12.925h2.248V14.2a3.04 3.04 0 011.103-1.075 3 3 0 011.485-.39c1.984 0 3.514 1.485 3.514 4.169v.133c0 2.684-1.511 4.207-3.514 4.207a2.865 2.865 0 01-1.486-.347 2.892 2.892 0 01-1.102-1.062v4.017H0V12.925zm6.063 4.13v-.133c0-1.656-.81-2.455-1.926-2.455-1.17 0-1.984.816-1.984 2.455v.134c0 1.637.775 2.436 1.984 2.436 1.247-.02 1.926-.857 1.926-2.436zm3.495 1.124v-5.254h2.229v4.93c0 1.104.453 1.637 1.398 1.637.945 0 1.681-.59 1.681-1.789v-4.778h2.23v8.147h-2.21v-1.275a2.693 2.693 0 01-1.071 1.11 2.666 2.666 0 01-1.5.337c-1.587 0-2.757-.933-2.757-3.065zm9.256-8.947h2.23v11.821h-2.23V9.233zm4.232 9.423v-4.131h-1.04v-1.599h1.04v-1.751h2.229v1.751h1.7v1.599h-1.7v3.921c0 .647.32.97.887.97.291.013.581-.04.85-.152v1.753c-.437.15-.898.221-1.36.21-1.68-.002-2.606-.877-2.606-2.571zm28.655-5.73h2.248v1.56a2.68 2.68 0 011.038-1.257 2.647 2.647 0 011.57-.417v2.093c-1.663-.019-2.608.533-2.608 2.094v4.074h-2.248v-8.147zm5.762 5.254v-5.254h2.229v4.93c0 1.104.453 1.637 1.397 1.637.945 0 1.681-.59 1.681-1.79v-4.777H65v8.147h-2.23v-1.275a2.693 2.693 0 01-1.07 1.11 2.664 2.664 0 01-1.499.337c-1.568 0-2.738-.933-2.738-3.065z" fill="#fff"/></svg>