<svg width="122" height="20" fill="none" xmlns="http://www.w3.org/2000/svg"><path d="M70.465 1.492v16.483c.001 0 .004.718.718.718h1.965c.716-.004.714-.718.714-.718V1.492c.002 0 0-.718-.714-.718h-1.965c-.717 0-.717.718-.718.718zm33.968 16.483l.001-7.266c0-3.252-2.86-5.246-4.948-5.246-2.077 0-3.842.54-5.2 1.64-.122.1-.461.204-.461-.092l-.006-.75s0-.715-.716-.715H91.41s-.715 0-.715.715l-.003 11.714c.003.718.718.718.718.718l1.697-.001c.712-.003.712-.717.707-.717l.003-5.725c.002-1.582 1.069-4.284 4.58-4.284 2.508 0 2.909 1.726 2.909 2.743l.002 7.266c0 .718.717.714.717.714l1.696.004s.716 0 .712-.718zM75.738 9.172a.375.375 0 00-.006.074l.006-.074zm37.633-1.142c2.445 0 4.418 1.68 4.425 4.29.005 2.69-1.975 4.416-4.42 4.416-2.448 0-4.312-1.92-4.312-4.45-.003-2.505 2.026-4.255 4.307-4.255zm4.086 9.543c.208-.163.423-.029.419.348 0 .054 0 .772.717.772h1.695s.712 0 .712-.718V1.492c0-.718-.712-.714-.712-.714h-1.695s-.717-.004-.722.714l.002 5.206c-.005.376-.204.505-.412.347-4.613-3.535-11.625 0-11.612 5.234.011 5.855 6.927 9.008 11.608 5.294z" fill="#fff"/><path d="M79.165 13.582c1.616-.856 5.607-.772 5.976-.723.186.025.455.16.452.421-.012 3.45-4.725 3.916-6.53 2.728a1.44 1.44 0 01-.63-1.09c-.013-.587.188-1.051.732-1.336zm-2.1 4.64c2.214 1.578 6.331 1.195 8.207-.445.227-.199.49-.035.564.198.185.576.445.714 1.02.718h1.172c.71 0 .715-.718.71-.718l.004-7.415c0-4.03-3.76-5.101-6.643-5.101-3.223.004-5.33 1.228-6.358 3.718-.105.253.197.557.454.557l2.2.007c.376 0 .753-.319.865-.505.572-.957 1.497-1.314 3.232-1.314 1.919 0 2.424.426 3.044 1.314.4.57-.14 1.164-.447 1.18-4.622.237-5.406.405-6.665.609-1.823.287-3.217 2.051-3.204 3.892 0 1.204.564 2.399 1.846 3.306zm-15.819.933c5.712 0 8.104-3.704 8.1-6.845-.004-3.005-2.404-6.847-8.149-6.847-5.735-.004-8.133 3.83-8.133 6.852 0 3.196 2.422 6.84 8.182 6.84zm0-2.453c-3.339 0-4.868-2.474-4.868-4.372 0-1.894 1.6-4.397 4.82-4.397s4.832 2.487 4.832 4.382c0 1.917-1.576 4.387-4.784 4.387zm-21.906-5.36c-.002 1.666.003 5.453.003 6.628 0 .717-.717.714-.717.714h-1.602s-.718.01-.724-.714l.004-16.482c0-.714.714-.714.714-.714H47.41c2.352 0 5.032 1.62 5.032 4.929 0 1.608-.92 3.093-2.216 3.998-.104.07-.184.21-.134.249.887.698.897 1.269 1.21 2.468.562 2.17.629 4.06 1.484 5.879.06.125-.088.387-.282.387l-2.07.005c-.68 0-1.052-.323-1.181-.72-.744-2.27-.231-4.471-1.779-6.626-.363-.506-1.166-.715-2.104-.715h-5.314c-.002 0-.714 0-.717.715zm7.06-3.09c0 .003 2.788.008 2.788-2.548 0-2.555-2.788-2.56-2.788-2.56h-6.342c-.714 0-.714.719-.714.719s-.005 2.795 0 3.673c0 .719.754.719.714.719l6.342-.003zm-17.067.386H11.789c-2.601 0-4.43 2-4.43 4.348 0 2.343 1.938 4.396 4.43 4.396h21.454v1.302H11.768c-3.457 0-5.781-2.645-5.781-5.687 0-3.043 2.335-5.675 5.771-5.675h16.224V5.546H5.987v13.138H4.542V4.23h24.79v4.407z" fill="#fff"/><path d="M10.44 15.238h22.803v-1.313H11.79v-1.777h16.229c3.436 0 5.771-2.63 5.771-5.674 0-3.043-2.395-5.7-5.853-5.7H1v17.91h1.446V2.09h25.536c2.498 0 4.447 2.052 4.447 4.397s-1.844 4.344-4.447 4.344H10.44v4.406z" fill="#fff"/></svg>